ply
format ascii 1.0
comment Created in Blender version 4.3.2
element vertex 20
property float x
property float y
property float z
element face 26
property list uchar uint vertex_indices
end_header
7 0 4
7 0 0
7 -4 4
7 -4 0
5 0 4
5 0 0
5 -4 4
5 -4 0
6 6 6
6 6 0
6 4 6
6 4 0
4 6 6
4 6 0
4 4 6
4 4 0
-40 -40 0
40 -40 0
-40 40 0
40 40 0
3 4 2 0
3 2 7 3
3 6 5 7
3 1 7 5
3 0 3 1
3 4 1 5
3 4 6 2
3 2 6 7
3 6 4 5
3 1 3 7
3 0 2 3
3 4 0 1
3 12 10 8
3 10 15 11
3 14 13 15
3 9 15 13
3 8 11 9
3 12 9 13
3 12 14 10
3 10 14 15
3 14 12 13
3 9 11 15
3 8 10 11
3 12 8 9
3 17 18 16
3 17 19 18
